<!--?xml version="1.0" encoding="utf-8"?-->
<!-- Generator: Adobe Illustrator 18.0.0, SVG Export Plug-In . SVG Version: 6.00 Build 0)  -->

<svg version="1.1" id="_x31_0" xmlns="http://www.w3.org/2000/svg" xmlns:xlink="http://www.w3.org/1999/xlink" x="0px" y="0px" viewBox="0 0 512 512" style="width: 256px; height: 256px; opacity: 1;" xml:space="preserve">
<style type="text/css">
	.st0{fill:#374149;}
</style>
<g>
	<path class="st0" d="M142.491,294.535l63.999,0.094c8.031,0.012,14.535,6.684,14.524,14.902l-0.086,59.539
		c-0.015,8.218,6.493,14.89,14.524,14.902l40.726,0.058c8.031,0.012,14.554-6.645,14.57-14.863l0.086-59.535
		c0.012-8.222,6.531-14.871,14.566-14.859l64,0.094c8.031,0.012,14.554-6.645,14.566-14.867l0.058-41.672
		c0.012-8.222-6.488-14.89-14.523-14.902l-64-0.094c-8.031-0.012-14.535-6.683-14.523-14.91l0.098-65.484
		c0.011-8.218-6.492-14.894-14.527-14.906l-40.727-0.058c-8.031-0.012-14.554,6.645-14.566,14.863l-0.098,65.484
		c-0.011,8.227-6.531,14.879-14.566,14.867l-64-0.094c-8.031-0.011-14.554,6.641-14.566,14.863l-0.058,41.672
		C127.956,287.851,134.456,294.523,142.491,294.535z" style="fill: rgb(75, 75, 75);"></path>
	<path class="st0" d="M256.373,0C114.987-0.203,0.205,114.242,0.002,255.629C-0.204,397.015,114.244,511.797,255.627,512
		c141.386,0.206,256.168-114.238,256.371-255.625C512.205,114.989,397.756,0.207,256.373,0z M447.998,256.282
		C447.845,362.148,361.592,448.156,255.72,448c-105.866-0.153-191.874-86.41-191.718-192.278
		C64.155,149.855,150.412,63.848,256.28,64C362.147,64.157,448.154,150.414,447.998,256.282z" style="fill: rgb(75, 75, 75);"></path>
</g>
</svg>
